<?xml version="1.0" encoding="UTF-8"?><svg id="Layer_2" xmlns="http://www.w3.org/2000/svg" viewBox="0 0 1099.81 206.49"><defs><style>.cls-1{fill:#fff;}.cls-2{fill:#28a349;}</style></defs><g id="Layer_1-2"><g><path class="cls-1" d="M47.66,194c-15.13-8.14-26.85-19.6-35.17-34.37C4.16,144.86,0,127.9,0,108.75s4.34-36.69,13.02-51.55c8.68-14.86,20.72-26.4,36.12-34.64,15.39-8.23,32.76-12.35,52.09-12.35,22.55,0,43.32,5.64,62.29,16.92l-14.77,40.28c-7.52-4.65-14.95-8.32-22.29-11.01-7.34-2.68-15.13-4.03-23.36-4.03-11.1,0-20.86,2.33-29.27,6.98-8.42,4.66-14.95,11.19-19.6,19.6-4.66,8.42-6.98,18.08-6.98,29s2.24,20.1,6.71,28.6c4.47,8.5,10.92,15.22,19.33,20.14,8.41,4.93,18.35,7.38,29.8,7.38,17,0,33.92-5.46,50.75-16.38l12.62,39.2c-9.49,6.27-19.6,11.05-30.34,14.37s-23,4.97-36.79,4.97c-19.33,0-36.56-4.07-51.69-12.22Z"/><path class="cls-2" d="M190.77,40.81c-4.56-4.65-6.85-10.29-6.85-16.92s2.28-12.49,6.85-17.05,10.25-6.85,17.05-6.85,12.53,2.28,17.18,6.85c4.65,4.56,6.98,10.25,6.98,17.05s-2.33,12.49-6.98,17.05c-4.66,4.57-10.38,6.85-17.18,6.85s-12.49-2.32-17.05-6.98Zm-4.43,26.31h41.62V203.53h-41.62V67.13Z"/><path class="cls-1" d="M353.09,67.13l-5.91,40.01c-4.48-1.61-9.31-2.42-14.5-2.42-10.38,0-18.04,3.13-22.96,9.4-4.93,6.27-7.38,16.02-7.38,29.27v60.15h-41.08V67.13h41.08v21.75c3.76-8.59,8.46-14.86,14.1-18.8,5.64-3.94,11.86-5.91,18.66-5.91,6.08,0,12.08,.99,17.99,2.95Z"/><path class="cls-1" d="M397.12,197.36c-11.1-5.91-19.74-14.18-25.91-24.84-6.18-10.65-9.26-22.87-9.26-36.65s3.22-26.36,9.67-37.19c6.44-10.83,15.26-19.24,26.45-25.24,11.19-6,23.58-9,37.19-9,9.31,0,17.86,1.17,25.64,3.49,7.79,2.33,14.45,5.28,20,8.86l-12.08,34.91c-3.94-2.86-8.55-5.28-13.83-7.25-5.28-1.97-10.7-2.95-16.25-2.95-9.85,0-17.81,3.13-23.9,9.4-6.09,6.27-9.13,14.41-9.13,24.43s2.95,18.12,8.86,24.3,14.05,9.26,24.43,9.26c5.01,0,10.51-.94,16.51-2.82,6-1.88,11.59-4.43,16.78-7.65l9.94,34.1c-6.09,4.12-13.2,7.43-21.35,9.93-8.15,2.5-16.78,3.76-25.91,3.76-14.14,0-26.76-2.95-37.86-8.86Z"/><path class="cls-1" d="M637.71,67.13V203.53h-41.62v-20.41c-5.01,7.88-11.64,13.74-19.87,17.59-8.24,3.85-17.37,5.77-27.39,5.77-15.04,0-26.5-4.43-34.37-13.29-7.88-8.86-11.81-21.43-11.81-37.73V67.13h41.62v70.89c0,11.1,1.75,19.06,5.24,23.9,3.49,4.83,9.44,7.25,17.86,7.25,9.31,0,16.42-2.77,21.35-8.32,4.92-5.55,7.38-13.51,7.38-23.9V67.13h41.62Z"/><path class="cls-1" d="M682.15,195.21c-7.25-7.34-10.88-18.43-10.88-33.29V1.61h41.62V154.93c0,10.2,4.12,15.31,12.35,15.31,3.58,0,7.52-.89,11.81-2.69l4.3,32.76c-9.13,3.93-18.62,5.91-28.46,5.91-13.25,0-23.49-3.67-30.74-11.01Z"/><path class="cls-2" d="M765.38,40.81c-4.56-4.65-6.85-10.29-6.85-16.92s2.28-12.49,6.85-17.05,10.25-6.85,17.05-6.85,12.53,2.28,17.18,6.85c4.65,4.56,6.98,10.25,6.98,17.05s-2.33,12.49-6.98,17.05c-4.66,4.57-10.38,6.85-17.18,6.85s-12.49-2.32-17.05-6.98Zm-4.43,26.31h41.62V203.53h-41.62V67.13Z"/><path class="cls-1" d="M825.93,186.88l59.61-85.12h-55.04v-34.64h116v16.92l-56.92,84.85h57.73v34.64h-121.37v-16.65Z"/><path class="cls-1" d="M1036.71,206.22c-14.32,0-26.99-2.95-37.99-8.86s-19.6-14.23-25.78-24.97-9.26-23-9.26-36.79,3.04-26.36,9.13-37.19c6.08-10.83,14.41-19.2,24.97-25.11,10.56-5.91,22.37-8.86,35.44-8.86s25.15,3.05,35.17,9.13c10.02,6.09,17.76,14.77,23.23,26.04,5.46,11.28,8.19,24.53,8.19,39.74v6.44h-93.98c1.43,8.77,5.24,15.3,11.41,19.6,6.18,4.3,14.37,6.44,24.57,6.44,14.86,0,28.46-3.85,40.81-11.55l9.93,31.68c-14.68,9.49-33.29,14.23-55.85,14.23Zm20.94-87.54c-.9-6.8-3.62-12.31-8.19-16.51-4.57-4.2-9.98-6.31-16.25-6.31-6.62,0-12.22,2.06-16.78,6.18-4.56,4.12-7.75,9.67-9.53,16.65h50.75Z"/></g></g></svg>